<?xml version="1.0" encoding="utf-8"?>
<!-- Generator: Adobe Illustrator 21.0.2, SVG Export Plug-In . SVG Version: 6.00 Build 0)  -->
<svg version="1.1" id="Layer_1" xmlns="http://www.w3.org/2000/svg" xmlns:xlink="http://www.w3.org/1999/xlink" x="0px" y="0px"
	 viewBox="0 0 135 133" style="enable-background:new 0 0 135 133;" xml:space="preserve">
<g>
	<g>
		<path d="M49.8,118.6c-12.8-0.4-35.5,4.4-41.1-12c-3-8.8,8.8-12.5,15.4-13.9c3.9-0.8,17.6-3.7,19.4,1.9c1.2,3.7,7,2.1,5.8-1.6
			c-2.9-9.1-14.5-7.9-22-6.9C19.1,87.2,6,90.4,2.8,99.4c-3.2,8.8,4.3,17.9,11.7,21.7c11,5.7,23.4,3.1,35.3,3.5
			C53.7,124.7,53.7,118.7,49.8,118.6L49.8,118.6z"/>
	</g>
</g>
<g>
	<g>
		<path d="M66.5,104.7c-8.2-18-10.4-38.6-6.1-57.9c3.3-15.1,12.3-35.6,29.7-38.3c4.7-0.7,9.8,0.1,12,4.9c2.1,4.6,2.1,10.5,2.4,15.5
			c0.7,10.2,0.2,20.5-2.8,30.3c-2.6,8.7-7.3,18-14.6,23.6c-1.7,1.3-3.8,2.8-5.2,0.8c-1.4-1.9,1-4.9,2.1-6.7c2.5-4,5.8-7.4,9.7-10.1
			c4-2.7,10.7-6.2,15.4-3.3c3.3,2.1,4.4,6.5,4.5,10.1c0.4,9.9-5.9,18.9-14,24c1.5,0.6,2.9,1.2,4.4,1.8c-1.7-6.8,3.2-14.1,9.9-15.7
			c7.7-1.8,13.9,3.9,11.3,11.7c-2.1,6.4-7.8,11.7-12.7,16c-5.7,4.9-12.2,8.7-19.1,11.4c-3.6,1.4-2,7.2,1.6,5.8
			c10.2-4,19.5-10,27.1-18c6.2-6.5,13.3-16.6,8.3-25.8c-3.9-7.1-13.4-9-20.5-6c-8.6,3.6-13.9,13.1-11.6,22.2
			c0.5,1.8,2.8,2.8,4.4,1.8c9.2-5.9,16.3-15.6,16.9-26.7c0.5-8.7-3.5-18.9-13.4-19.6c-11.3-0.8-22.3,8.9-27.7,17.9
			c-2.3,3.9-5.2,9.4-2,13.6c2.6,3.4,7.4,3.1,11,1.5c10-4.3,16.5-17.6,19.7-27.3c4.6-14,4.4-29.3,2.4-43.7c-0.7-4.9-1.8-9.8-5.9-13
			c-4.1-3.3-9.7-3.8-14.7-3C77.7,4.5,69.1,13.2,63.4,22.5c-15.3,25.2-14.1,59.1-2.1,85.3C62.9,111.3,68.1,108.2,66.5,104.7
			L66.5,104.7z"/>
	</g>
</g>
</svg>
