<?xml version="1.0" encoding="utf-8"?>
<!-- Generator: Adobe Illustrator 21.0.2, SVG Export Plug-In . SVG Version: 6.00 Build 0)  -->
<svg version="1.1" id="Layer_1" xmlns="http://www.w3.org/2000/svg" xmlns:xlink="http://www.w3.org/1999/xlink" x="0px" y="0px"
	 viewBox="0 0 122 122" style="enable-background:new 0 0 122 122;" xml:space="preserve">
<style type="text/css">
	.st0{fill:#FF0000;}
</style>
<g>
	<g>
		<path class="st0" d="M47.3,98.7c-9.6-0.2-24.9,3.1-31.2-6.9c-4.6-7.4,4.7-11.1,10.5-12.4c3.6-0.8,14.8-3.1,16.7,1.6
			c0.7,1.8,3.6,1,2.9-0.8c-2.4-6.1-10.5-5-15.8-4.4c-6,0.7-16,2.6-18.3,9.2c-2.2,6,3.7,11.9,8.6,14.3c8.3,4,17.8,2.2,26.7,2.4
			C49.2,101.8,49.2,98.8,47.3,98.7L47.3,98.7z"/>
	</g>
</g>
<g>
	<g>
		<path class="st0" d="M59.4,88.6c-7.7-15.5-8.8-34.5-1.7-50.5c3-6.7,7.9-13.3,14.7-16.5c3.7-1.7,9.3-2.9,13.1-0.6
			c4.3,2.6,4.1,10.1,4.4,14.5c0.6,8.9-0.3,18.1-4.3,26.2c-1.8,3.7-4.2,7.1-7.2,9.9c-1,0.9-3.4,3.3-4.9,3.1c-5.9-0.8,0.2-7.7,1.1-8.8
			c4.9-5.4,18.6-13.4,21.7-2.1c2.3,8.3-4,16.2-10.7,20.2c0.7,0.3,1.5,0.6,2.2,0.9c-1.4-5.4,2.8-10.5,8-11.8
			c7.4-1.8,12.7,4.4,8.6,11.3c-4.9,8.4-15,14.2-23.8,17.4c-1.8,0.7-1,3.6,0.8,2.9c8-2.9,15.3-7.4,21.3-13.5
			c4.3-4.4,9.3-11.9,4.4-17.7c-8.1-9.8-25.2,0.5-22.2,12.2c0.2,0.9,1.4,1.4,2.2,0.9c6.5-3.9,12.1-10.5,12.6-18.3
			c0.3-6-2.6-12.4-9.1-13.1c-7.8-0.9-16,5.4-20.2,11.3c-2.9,4.2-5.3,12.4,2.8,11.4c7.8-1,13.6-11,16.3-17.5
			c3.9-9.6,4.1-20.1,2.9-30.2c-1-7.8-4-13.4-12.6-13.3c-7.8,0.1-14.7,5-19.3,10.9C46.8,45.1,47.4,71,56.8,90.1
			C57.7,91.9,60.3,90.4,59.4,88.6L59.4,88.6z"/>
	</g>
</g>
</svg>
