<?xml version="1.0" standalone="no"?>
<!DOCTYPE svg PUBLIC "-//W3C//DTD SVG 20010904//EN"
 "http://www.w3.org/TR/2001/REC-SVG-20010904/DTD/svg10.dtd">
<svg version="1.0" xmlns="http://www.w3.org/2000/svg"
 width="16.000000pt" height="16.000000pt" viewBox="0 0 16.000000 16.000000"
 preserveAspectRatio="xMidYMid meet">
<metadata>
Created by potrace 1.11, written by Peter Selinger 2001-2013
</metadata>
<g transform="translate(0.000000,16.000000) scale(0.003397,-0.003397)"
fill="#000000" stroke="none">
<path d="M0 3435 c0 -1273 0 -1276 20 -1265 11 6 20 16 20 23 0 7 32 39 70 72
39 33 84 73 101 89 31 28 34 29 113 23 92 -6 159 -27 196 -61 14 -13 55 -37
93 -54 37 -17 70 -38 74 -48 7 -18 -12 -34 -42 -34 -18 0 -30 -16 -52 -67 -7
-16 27 -17 62 -1 14 6 35 26 46 45 17 27 27 33 54 33 57 0 62 -21 19 -79 -22
-29 -46 -51 -56 -51 -10 0 -23 -10 -28 -23 -6 -12 -15 -30 -22 -39 -9 -13 -9
-22 1 -41 19 -36 11 -61 -23 -65 -19 -2 -36 4 -52 19 -21 20 -24 20 -30 5 -9
-22 -2 -28 76 -68 57 -30 66 -38 74 -71 11 -43 -2 -104 -34 -173 -11 -22 -20
-47 -20 -55 0 -8 -7 -32 -15 -54 -17 -47 -19 -85 -5 -85 5 0 13 18 16 40 4 23
15 46 24 53 22 15 70 103 70 127 0 22 25 44 42 37 8 -2 19 -39 26 -83 12 -77
43 -167 73 -215 21 -33 49 -105 51 -132 0 -12 4 -2 7 23 7 53 34 67 52 26 13
-27 49 -36 49 -12 0 17 -17 31 -55 43 -23 7 -38 25 -67 84 -38 73 -47 116 -28
135 6 6 4 24 -5 51 -8 23 -12 49 -9 58 8 19 48 20 64 0 15 -18 5 -81 -13 -88
-9 -3 -8 -9 3 -23 9 -10 25 -36 35 -56 22 -43 32 -39 72 29 13 24 29 43 33 43
4 0 17 -30 28 -68 23 -77 26 -187 6 -217 -8 -11 -14 -29 -14 -41 0 -12 -15
-47 -34 -78 -41 -68 -53 -149 -32 -216 24 -78 43 -114 75 -144 33 -31 56 -29
27 3 -33 36 -57 97 -63 158 -5 56 -3 67 31 136 20 41 43 80 51 87 27 22 37 1
30 -62 -5 -45 -3 -68 8 -91 17 -35 47 -251 47 -333 0 -35 6 -59 19 -75 31 -41
51 -87 51 -119 0 -45 46 -130 70 -130 15 0 23 -13 36 -62 10 -34 28 -73 40
-87 87 -99 96 -115 83 -148 -6 -16 -17 -23 -34 -23 -18 0 -25 -5 -25 -20 0
-30 48 -27 59 4 5 13 18 26 29 28 11 3 29 23 40 45 11 21 41 62 66 90 52 58
61 105 26 136 -12 10 -20 29 -20 48 0 31 1 32 20 14 10 -9 24 -33 30 -51 14
-42 46 -46 60 -9 6 15 37 54 71 88 34 34 80 87 102 117 23 30 65 83 94 118 29
35 60 76 68 91 18 36 35 43 66 27 29 -14 37 -62 19 -116 -6 -19 -10 -64 -8
-100 l3 -65 22 43 c12 25 25 74 29 113 4 38 11 72 15 75 5 3 9 29 9 57 0 54
20 198 39 279 6 26 22 58 35 73 18 19 25 40 28 87 4 57 8 64 44 97 22 20 62
61 87 92 l48 57 42 -10 c23 -5 67 -7 97 -4 30 3 82 1 115 -5 64 -11 176 -12
237 -3 35 6 41 2 124 -77 222 -214 216 -207 281 -340 100 -203 108 -242 107
-514 0 -176 -4 -245 -16 -295 -9 -36 -19 -98 -22 -137 l-6 -73 595 0 595 0 0
2355 0 2355 -2355 0 -2355 0 0 -1275z m2307 1024 c15 -5 42 -22 58 -37 44 -40
88 -61 139 -68 26 -4 49 -11 52 -15 9 -16 37 -10 61 13 22 21 23 21 43 3 17
-16 25 -17 40 -7 31 19 56 14 68 -13 16 -34 91 -80 111 -68 9 6 51 11 94 11
73 2 78 0 87 -22 14 -39 74 -51 85 -16 6 19 7 19 26 1 28 -26 122 -45 149 -31
12 7 32 9 44 6 29 -7 107 -79 110 -103 2 -13 12 -18 34 -18 24 0 39 -9 61 -36
17 -20 43 -39 59 -42 18 -4 33 -16 40 -32 15 -32 44 -30 52 3 7 33 16 32 45
-7 17 -24 25 -48 25 -75 0 -23 4 -47 9 -55 9 -14 14 -10 36 34 6 11 19 20 30
20 33 0 32 -35 -1 -203 -2 -12 -22 -41 -44 -63 -43 -45 -49 -59 -24 -59 25 0
11 -50 -31 -110 -19 -27 -35 -55 -35 -62 0 -14 54 -48 76 -48 8 0 14 -7 14
-15 0 -22 -47 -19 -72 5 -14 13 -36 20 -61 20 -35 0 -38 -2 -32 -22 4 -13 11
-27 16 -32 14 -15 11 -60 -7 -94 -17 -36 -44 -43 -44 -12 0 11 -7 37 -15 58
l-16 36 -25 -42 -25 -42 21 -34 c22 -36 50 -131 50 -170 0 -38 -21 -49 -73
-35 -34 8 -54 8 -80 0 -24 -8 -42 -9 -61 -1 -15 5 -53 11 -84 12 -72 3 -293
-26 -352 -45 -54 -18 -103 -26 -186 -31 -34 -2 -71 -9 -82 -15 -11 -6 -41 -11
-67 -11 -25 0 -58 -6 -73 -14 -15 -7 -48 -16 -73 -20 -25 -4 -62 -15 -82 -26
-25 -14 -65 -21 -134 -25 -54 -4 -156 -18 -226 -31 -136 -27 -170 -25 -223 7
-38 23 -69 25 -60 4 3 -8 9 -22 12 -30 4 -9 1 -15 -7 -16 -37 -3 -74 4 -86 17
-48 47 -123 -19 -123 -109 0 -50 45 -147 65 -140 6 2 10 44 10 99 -1 71 3 100
13 111 23 23 47 12 47 -22 1 -17 4 -35 8 -42 4 -7 -1 -30 -13 -52 -12 -25 -21
-64 -22 -102 l-3 -63 68 -11 c74 -12 108 -34 88 -58 -6 -8 -25 -17 -41 -21
-33 -6 -42 -39 -14 -50 27 -10 5 -26 -37 -26 -33 0 -41 4 -49 26 -6 14 -25 43
-43 64 -17 21 -45 69 -60 107 -40 95 -41 96 -70 111 -21 10 -32 10 -66 -4 -22
-9 -46 -14 -53 -12 -13 5 -17 53 -19 209 0 75 32 160 74 191 58 44 221 136
262 149 22 7 72 27 110 45 41 19 143 50 250 74 99 23 209 52 244 64 58 19 66
25 76 56 14 40 44 53 52 21 3 -13 13 -21 28 -21 12 0 36 -5 53 -11 27 -9 39
-7 87 15 52 25 59 26 143 17 99 -10 142 -24 142 -46 0 -21 17 -19 30 4 5 11
25 25 44 31 43 14 81 -3 143 -62 28 -28 47 -39 58 -34 13 4 29 -6 57 -38 37
-41 42 -43 83 -39 36 5 45 2 54 -16 15 -28 47 -27 55 2 10 39 6 107 -8 135
-16 32 -26 255 -12 260 6 2 15 -16 22 -40 6 -24 19 -70 28 -103 16 -57 40 -90
57 -79 4 2 15 29 24 60 9 30 22 57 30 60 7 3 18 18 25 33 6 16 22 33 36 39 28
13 29 23 8 63 -11 23 -20 29 -35 24 -30 -10 -45 9 -59 74 l-12 58 -29 -14
c-21 -11 -33 -11 -49 -3 -11 6 -20 12 -20 13 0 1 9 31 21 67 19 61 19 65 3 77
-22 16 -105 17 -138 2 -22 -11 -28 -8 -52 20 -14 17 -40 39 -58 48 -17 9 -36
23 -42 31 -8 11 -22 13 -57 8 -39 -6 -53 -14 -79 -47 -17 -21 -37 -39 -44 -39
-7 0 -19 -10 -25 -22 -17 -32 -28 -38 -73 -38 -39 0 -79 -10 -146 -36 -32 -13
-42 -12 -115 11 -94 29 -110 30 -150 9 -21 -11 -43 -14 -73 -9 -29 4 -48 2
-59 -7 -9 -7 -30 -17 -46 -23 -21 -7 -34 -20 -43 -45 l-12 -35 -1 33 c-1 17 4
32 9 32 13 0 13 46 0 71 -6 10 -18 19 -26 19 -8 0 -29 7 -45 16 -29 15 -33 14
-71 -11 -29 -19 -47 -25 -68 -20 -45 10 -45 37 -3 168 8 26 12 54 9 63 -9 23
-37 13 -56 -21 -9 -16 -28 -36 -43 -43 -23 -11 -27 -20 -27 -53 0 -29 -7 -47
-25 -64 -13 -14 -28 -25 -32 -25 -5 0 -14 -20 -21 -45 l-12 -45 -51 0 c-45 0
-55 -4 -83 -33 -17 -19 -52 -48 -78 -66 -25 -18 -49 -43 -52 -56 -12 -46 -66
-43 -86 5 -13 31 -17 33 -60 34 -20 1 -26 7 -28 28 -3 21 7 39 40 75 25 27 65
80 91 120 66 102 146 179 199 193 23 7 64 30 90 52 29 24 61 41 85 45 21 3 55
14 75 24 21 11 46 19 56 19 10 0 27 6 37 14 16 12 17 16 6 30 -7 9 -26 16 -42
16 -32 0 -43 12 -34 40 11 34 66 40 155 18 34 -8 50 -17 43 -21 -19 -12 -16
-34 9 -67 21 -29 69 -50 115 -50 34 0 42 44 14 74 -11 12 -21 34 -21 49 0 15
-9 32 -21 41 -17 12 -49 58 -49 71 0 2 10 6 23 8 12 2 25 5 29 6 4 0 19 -4 35
-10z m731 -560 c-2 -6 -8 -10 -13 -10 -5 0 -11 4 -13 10 -2 6 4 11 13 11 9 0
15 -5 13 -11z m29 -96 c2 -6 -3 -13 -12 -16 -10 -5 -15 0 -15 14 0 21 21 22
27 2z m-37 -53 c0 -5 -4 -10 -10 -10 -5 0 -10 5 -10 10 0 6 5 10 10 10 6 0 10
-4 10 -10z m87 -67 c6 -16 -35 -36 -55 -28 -15 6 -14 9 7 26 25 20 42 21 48 2z
m-387 -23 c0 -5 -4 -10 -10 -10 -5 0 -10 5 -10 10 0 6 5 10 10 10 6 0 10 -4
10 -10z m-1570 -205 c0 -20 -5 -25 -25 -25 -29 0 -33 17 -7 36 25 19 32 17 32
-11z m703 -15 c-7 -28 -13 -25 -13 6 0 14 4 23 9 20 5 -3 7 -15 4 -26z m-773
-62 c0 -13 -16 -47 -36 -76 -28 -39 -40 -50 -49 -42 -7 6 -11 18 -10 28 12 61
18 75 35 92 28 28 60 26 60 -2z m2677 -200 c-3 -8 -6 -5 -6 6 -1 11 2 17 5 13
3 -3 4 -12 1 -19z m-2789 -230 c31 -31 -2 -56 -38 -31 -22 15 -22 17 -5 30 23
16 28 16 43 1z m2482 -49 c21 -39 -7 -61 -54 -43 -24 9 -19 24 7 24 16 0 18 3
8 9 -16 10 -6 31 14 31 8 0 19 -9 25 -21z m-2330 -19 c0 -5 -9 -10 -21 -10
-11 0 -17 5 -14 10 3 6 13 10 21 10 8 0 14 -4 14 -10z m2119 -4 c12 -14 5 -46
-9 -46 -5 0 -12 5 -15 10 -4 6 -11 8 -16 5 -11 -7 -79 16 -79 26 0 7 15 10 81
17 15 1 32 -4 38 -12z m271 -57 c0 -14 -5 -19 -17 -17 -26 5 -29 38 -4 38 15
0 21 -6 21 -21z m-1263 -71 c-3 -8 -6 -5 -6 6 -1 11 2 17 5 13 3 -3 4 -12 1
-19z m-18 -129 c1 -56 -22 -75 -41 -34 -9 20 -7 36 8 81 18 54 19 55 25 28 4
-16 7 -50 8 -75z m-1375 -33 c24 -31 30 -34 73 -33 27 1 92 -6 146 -15 54 -9
107 -14 118 -11 40 11 82 -59 44 -74 -9 -3 -35 0 -58 7 -127 35 -323 9 -380
-51 -15 -16 -32 -29 -37 -29 -15 0 -40 56 -40 89 0 26 5 32 33 39 28 8 32 12
29 41 -3 37 13 71 32 71 8 0 25 -15 40 -34z m2431 -61 c32 -53 48 -71 67 -73
22 -3 29 4 48 42 17 36 27 46 46 46 33 0 48 -40 40 -105 -4 -27 -9 -74 -13
-103 -5 -44 -9 -53 -29 -58 -18 -5 -24 -13 -24 -34 0 -31 -25 -47 -46 -29 -8
6 -30 8 -57 4 -35 -5 -51 -3 -73 11 -20 14 -47 18 -101 18 -53 0 -73 4 -73 13
0 7 9 13 20 13 11 0 23 7 26 15 4 8 12 15 19 15 19 0 25 24 18 77 -5 45 -3 50
21 62 24 13 26 19 26 81 0 106 22 107 85 5z m-1393 38 c13 -12 18 -30 18 -72
0 -31 -4 -62 -9 -70 -25 -40 -61 60 -46 128 8 36 12 37 37 14z m792 -121 c17
-11 49 -20 70 -21 21 -1 47 -6 57 -11 10 -6 26 -10 37 -10 10 0 31 -10 46 -23
23 -20 25 -27 17 -49 -6 -15 -26 -34 -45 -43 -20 -10 -36 -21 -36 -26 0 -13
-67 -11 -75 2 -4 5 -12 8 -18 6 -7 -2 -19 2 -29 10 -9 8 -29 16 -44 18 -37 4
-83 60 -84 103 0 22 5 32 15 32 8 0 15 7 15 15 0 21 36 19 74 -3z m-1656 -58
c-2 -25 -8 -29 -35 -32 -41 -4 -44 18 -7 55 30 30 47 20 42 -23z m-238 -134
c0 -10 -10 -25 -22 -31 -18 -10 -24 -8 -35 7 -22 31 -16 44 22 44 28 0 35 -4
35 -20z m164 -106 c38 -15 4 -81 -64 -123 -28 -17 -52 -31 -55 -31 -3 0 -5 18
-5 40 0 33 3 40 20 40 11 0 27 12 37 28 14 23 41 52 49 52 1 0 9 -3 18 -6z
m-181 -240 c9 -10 -4 -34 -18 -34 -17 0 -28 17 -20 30 7 11 28 13 38 4z m2445
-71 c-2 -12 -14 -19 -38 -21 l-35 -3 25 21 c31 24 53 26 48 3z"/>
<path d="M2360 4157 c0 -19 8 -26 41 -36 34 -10 43 -10 50 1 14 21 5 33 -27
36 -16 2 -33 8 -38 13 -17 15 -26 10 -26 -14z"/>
<path d="M3692 3567 c-30 -32 -28 -47 6 -47 29 0 72 35 72 58 0 21 -55 13 -78
-11z"/>
<path d="M3392 2330 c1 -13 9 -25 16 -28 17 -5 15 23 -4 39 -14 11 -15 10 -12
-11z"/>
<path d="M298 2308 c-12 -12 -27 -23 -33 -23 -27 -1 -55 -18 -55 -33 0 -10 -9
-23 -20 -30 -11 -7 -20 -17 -20 -23 0 -6 -10 -19 -22 -28 -29 -24 -19 -74 15
-69 14 2 23 11 25 25 2 12 12 25 23 28 14 5 18 12 13 31 -6 23 -4 25 30 22 38
-2 56 11 56 44 0 10 9 18 22 20 30 4 35 34 9 48 -17 8 -25 6 -43 -12z"/>
<path d="M440 2238 c1 -18 25 -48 39 -48 17 0 13 25 -7 43 -22 20 -32 21 -32
5z"/>
<path d="M43 2144 c-3 -9 -1 -25 5 -35 7 -10 12 -27 13 -36 0 -14 2 -15 6 -3
3 8 12 23 20 32 19 22 8 58 -18 58 -11 0 -22 -7 -26 -16z"/>
<path d="M497 2021 c-51 -98 -51 -181 0 -181 3 0 4 19 2 43 -3 47 12 91 42
123 25 27 30 77 8 82 -11 2 -27 -19 -52 -67z"/>
<path d="M156 1995 c-11 -8 -28 -15 -38 -15 -10 0 -21 -7 -25 -16 -6 -16 -32
-15 -75 1 -15 6 -18 2 -18 -24 0 -51 74 -74 86 -26 5 21 12 25 43 25 20 0 47
7 59 16 15 10 49 16 101 17 82 3 107 11 81 27 -25 16 -192 12 -214 -5z"/>
<path d="M756 1429 c-3 -17 -6 -52 -6 -78 0 -25 -11 -77 -24 -116 -92 -275
-99 -315 -50 -315 10 0 74 146 79 180 13 80 25 109 48 112 21 3 22 7 20 72 -5
128 -50 227 -67 145z"/>
<path d="M2772 1198 c-26 -100 -31 -127 -42 -193 -7 -38 -15 -88 -18 -110 -5
-27 -14 -43 -29 -50 -26 -13 -63 -58 -63 -76 0 -7 7 -20 16 -30 12 -14 13 -25
6 -56 -14 -53 -15 -430 -2 -438 13 -8 40 54 40 90 0 15 16 93 36 173 62 256
66 284 70 515 2 119 3 217 1 217 -2 0 -9 -19 -15 -42z m-72 -484 c0 -8 -4 -14
-10 -14 -5 0 -10 9 -10 21 0 11 5 17 10 14 6 -3 10 -13 10 -21z"/>
<path d="M825 1074 c-4 -16 -17 -67 -30 -114 -13 -47 -29 -110 -34 -140 -19
-103 -83 -296 -114 -343 -9 -14 -21 -56 -28 -93 -6 -38 -17 -78 -23 -89 -16
-25 -39 -116 -32 -123 8 -8 56 27 56 41 0 8 11 24 25 37 14 13 27 38 31 56 3
18 12 38 20 45 8 6 14 18 14 25 0 8 4 14 10 14 5 0 7 -13 4 -30 -6 -29 -5 -30
30 -30 20 0 37 5 37 10 1 6 2 14 3 19 0 5 4 13 9 17 4 4 7 16 7 26 0 10 6 18
13 18 6 0 18 4 26 9 18 12 -3 53 -24 45 -12 -5 -15 3 -15 41 0 25 -5 65 -11
88 -8 34 -5 70 16 192 52 298 50 275 32 292 -14 15 -16 14 -22 -13z"/>
<path d="M2490 710 c0 -29 22 -72 53 -104 23 -23 31 -27 37 -15 6 9 4 22 -5
36 -8 12 -15 40 -15 63 0 39 -1 40 -35 40 -28 0 -35 -4 -35 -20z"/>
<path d="M2490 495 c-14 -17 -5 -131 12 -141 16 -10 22 5 24 64 4 86 -8 111
-36 77z"/>
<path d="M2172 444 c-5 -11 -13 -40 -16 -66 -6 -40 -5 -48 8 -48 11 0 16 9 16
29 0 16 4 40 9 54 12 31 -3 58 -17 31z"/>
<path d="M892 423 c-9 -25 -14 -51 -27 -133 -25 -170 -16 -188 93 -197 71 -6
72 -6 72 -34 0 -22 -5 -29 -20 -29 -11 0 -20 -7 -20 -15 0 -12 13 -15 60 -15
55 0 60 2 66 25 3 14 3 32 0 41 -3 9 1 41 10 72 10 32 18 98 18 150 2 106 3
105 -79 117 -27 4 -61 16 -74 26 -13 11 -38 19 -56 19 -26 0 -35 -5 -43 -27z"/>
<path d="M237 403 c-10 -9 -9 -23 2 -23 5 0 11 7 15 15 5 15 -5 20 -17 8z"/>
<path d="M2300 383 c-43 -16 -82 -83 -47 -83 23 0 40 18 52 54 7 20 12 36 11
35 0 0 -8 -3 -16 -6z"/>
<path d="M307 276 c-27 -33 -37 -54 -37 -80 0 -29 4 -36 19 -36 23 0 50 31 75
88 15 34 17 44 6 57 -18 22 -22 20 -63 -29z"/>
<path d="M2170 310 c0 -5 5 -12 10 -15 6 -3 10 -21 10 -38 0 -46 10 -77 25
-77 15 0 22 42 15 89 -4 27 -11 36 -32 42 -16 4 -28 3 -28 -1z"/>
<path d="M2485 300 c-6 -18 -12 -21 -33 -16 -15 4 -34 8 -42 9 -17 2 -49 -57
-50 -93 0 -14 -11 -45 -24 -70 -13 -25 -26 -64 -29 -87 -5 -40 -4 -43 19 -43
15 0 35 11 48 27 27 31 62 26 53 -7 -4 -18 0 -20 35 -20 27 0 45 6 54 18 13
16 13 16 14 0 0 -13 8 -18 26 -18 21 0 25 4 19 18 -3 9 -9 29 -12 44 -4 22 -1
27 18 30 31 4 37 34 9 43 -17 5 -21 14 -19 38 3 53 0 63 -25 75 -16 7 -26 21
-28 38 -4 34 -24 42 -33 14z m5 -245 c0 -23 -6 -38 -16 -42 -27 -10 -37 12
-20 46 22 41 36 39 36 -4z"/>
<path d="M192 285 c0 -16 2 -22 5 -12 2 9 2 23 0 30 -3 6 -5 -1 -5 -18z"/>
<path d="M2103 272 c-7 -4 -19 -24 -27 -44 -16 -38 -53 -73 -89 -84 -38 -11
-57 -35 -57 -71 0 -18 3 -33 6 -33 15 0 44 22 44 34 0 7 12 16 28 19 16 4 36
20 50 42 23 37 56 46 66 19 3 -8 2 -23 -3 -33 -6 -10 -13 -41 -17 -69 l-7 -52
47 0 46 0 0 39 c0 21 3 59 6 84 6 40 4 47 -12 53 -39 12 -49 22 -59 62 -7 28
-14 39 -22 34z"/>
<path d="M1774 178 c3 -18 16 -41 29 -52 20 -17 22 -17 25 -1 5 23 -29 85 -47
85 -10 0 -12 -8 -7 -32z"/>
<path d="M31 111 c-31 -48 -36 -66 -25 -95 6 -17 34 -10 34 9 0 7 9 24 20 37
11 14 24 37 29 52 9 21 7 27 -8 36 -16 8 -24 2 -50 -39z"/>
<path d="M380 85 c0 -8 -4 -15 -9 -15 -12 0 -61 -47 -61 -60 0 -5 13 -10 28
-10 23 0 31 7 45 38 19 44 21 62 7 62 -5 0 -10 -7 -10 -15z"/>
<path d="M1390 90 c0 -5 10 -10 23 -10 18 0 19 2 7 10 -19 13 -30 13 -30 0z"/>
<path d="M1834 76 c-9 -37 -1 -61 21 -61 22 0 30 24 21 61 -8 31 -34 31 -42 0z"/>
<path d="M2694 86 c-4 -10 -2 -22 4 -28 8 -8 13 -7 18 6 4 10 2 22 -4 28 -8 8
-13 7 -18 -6z"/>
<path d="M935 30 c-8 -14 3 -30 21 -30 8 0 14 9 14 20 0 21 -24 28 -35 10z"/>
<path d="M2690 15 c-10 -13 -9 -15 9 -15 11 0 21 4 21 9 0 18 -18 21 -30 6z"/>
</g>
</svg>
